<?xml version="1.0" encoding="utf-8"?>
<!-- Generator: Adobe Illustrator 21.1.0, SVG Export Plug-In . SVG Version: 6.00 Build 0)  -->
<svg version="1.1" id="Capa_1" xmlns="http://www.w3.org/2000/svg" xmlns:xlink="http://www.w3.org/1999/xlink" x="0px" y="0px"
	 viewBox="0 0 612 792" style="enable-background:new 0 0 612 792;" xml:space="preserve">
<style type="text/css">
	.st0{fill:#FFFFFF;stroke:#000000;stroke-miterlimit:10;}
</style>
<polygon class="st0" points="37.8,286.3 40.1,557.8 66.3,557.8 65.1,393.5 94.9,442.3 118.7,401.8 123.5,566.1 139,567.3 
	134.2,400.6 148.5,401.8 149.7,614.9 167.5,614.9 166.3,522 198.5,523.2 199.7,618.5 219.9,618.5 216.3,503 235.4,503 241.3,592.3 
	259.2,595.9 253.2,536.3 287.8,535.1 289,593.5 316.3,593.5 304.4,499.4 322.3,498.2 330.6,589.9 398.5,591.1 392.5,507.8 
	421.1,588.7 471.1,589.9 489,512.5 504.4,512.5 504.4,588.7 584.2,589.9 584.2,557.8 524.7,555.4 523.5,489.9 490.1,486.3 
	486.6,428 579.4,426.8 579.4,394.7 464,395.9 468.7,478 453.2,393.5 404.4,395.9 397.3,486.3 372.3,485.1 378.2,563.7 342.5,561.3 
	334.2,430.4 387.8,423.2 381.8,397 300.9,399.4 314,478 290.1,481.6 284.2,399.4 239,400.6 243.7,482.8 216.3,481.6 218.7,389.9 
	160.4,392.3 161.6,288.7 130.6,289.9 133,373.2 109.2,374.4 93.7,405.4 83,370.9 60.4,370.9 58,280.4 "/>
</svg>
